<?xml version="1.0" standalone="no"?>
<!DOCTYPE svg PUBLIC "-//W3C//DTD SVG 20010904//EN"
 "http://www.w3.org/TR/2001/REC-SVG-20010904/DTD/svg10.dtd">
<svg version="1.0" xmlns="http://www.w3.org/2000/svg"
 width="4092.000000pt" height="2048.000000pt" viewBox="0 0 4092.000000 2048.000000"
 preserveAspectRatio="xMidYMid meet">

<g transform="translate(0.000000,2048.000000) scale(0.100000,-0.100000)"
fill="#000000" stroke="none">
<path d="M9315 14333 c-73 -10 -124 -35 -168 -82 -84 -90 -77 123 -75 -2296
l3 -2150 25 -48 c28 -56 96 -122 148 -145 23 -9 64 -15 107 -15 89 0 149 27
209 94 83 93 76 -118 74 2299 -3 2055 -4 2157 -21 2188 -27 49 -93 112 -141
132 -45 20 -114 29 -161 23z"/>
<path d="M25328 14330 c-81 -14 -166 -83 -205 -167 -17 -36 -18 -151 -18
-2198 l0 -2160 21 -45 c31 -67 68 -106 131 -136 133 -66 329 -13 378 101 7 17
19 83 26 148 7 64 15 117 20 117 9 0 122 -87 221 -170 177 -149 328 -204 633
-230 237 -20 467 -10 610 26 90 22 306 126 417 200 659 439 915 1453 552 2189
-78 158 -169 281 -319 430 -146 146 -246 221 -397 300 -214 111 -393 159 -678
180 -283 21 -576 -101 -909 -380 -56 -47 -104 -85 -106 -83 -1 2 -7 377 -12
833 -7 616 -13 838 -22 860 -55 135 -196 210 -343 185z m1587 -1979 c154 -44
278 -116 400 -233 246 -233 375 -539 375 -888 0 -205 -40 -384 -125 -555 -205
-412 -592 -645 -994 -596 -218 27 -392 113 -556 276 -245 242 -356 518 -356
879 0 344 116 630 350 864 144 144 286 223 482 267 93 21 330 14 424 -14z"/>
<path d="M7865 14314 c-252 -52 -453 -264 -509 -534 -11 -56 -17 -180 -22
-496 l-7 -421 -75 -7 c-41 -3 -111 -6 -154 -6 -108 0 -159 -15 -212 -61 -61
-54 -80 -107 -74 -204 6 -90 39 -152 106 -200 43 -30 44 -30 223 -36 99 -4
183 -10 187 -14 4 -4 9 -572 12 -1263 6 -1410 -2 -1287 81 -1377 68 -73 108
-90 214 -90 82 0 95 3 145 31 60 33 112 99 130 162 6 23 10 223 10 523 0 267
3 830 7 1251 l6 765 219 6 c183 5 225 9 261 25 101 45 150 121 149 232 0 77
-21 127 -74 176 -67 63 -82 67 -327 76 -124 5 -226 10 -228 12 -2 1 -6 153 -9
337 -7 362 0 466 37 526 44 70 146 103 325 103 150 0 236 35 275 113 19 35 21
53 17 127 -9 151 -65 219 -206 249 -77 16 -421 13 -507 -5z"/>
<path d="M15490 14026 c-194 -43 -308 -215 -271 -412 7 -37 21 -85 32 -106 30
-58 102 -126 167 -156 49 -23 70 -27 152 -27 88 0 101 3 162 33 120 59 179
152 186 293 9 189 -84 332 -243 374 -69 18 -109 18 -185 1z"/>
<path d="M19289 12959 c-64 -10 -116 -36 -162 -82 -62 -62 -78 -109 -89 -276
-6 -80 -12 -148 -14 -149 -1 -2 -49 35 -106 83 -192 162 -383 277 -556 335
-127 42 -243 54 -404 40 -424 -35 -755 -193 -1054 -502 -292 -302 -436 -642
-451 -1068 -14 -416 85 -776 308 -1115 93 -142 275 -326 406 -412 104 -68 329
-175 415 -197 110 -28 256 -39 448 -33 325 11 530 54 663 140 34 22 126 91
204 153 77 63 145 114 151 114 5 0 14 -54 20 -119 12 -127 23 -159 69 -203 75
-71 225 -95 324 -51 50 22 110 77 134 122 34 67 36 150 33 1586 l-3 1420 -24
53 c-53 118 -179 183 -312 161z m-1051 -595 c188 -39 348 -130 497 -286 184
-190 292 -410 326 -665 18 -137 7 -376 -24 -494 -78 -299 -247 -542 -487 -700
-148 -98 -303 -142 -495 -142 -261 0 -468 86 -660 277 -169 168 -280 371 -331
606 -23 107 -26 408 -5 515 47 237 148 430 320 608 141 147 307 242 486 280
94 21 277 21 373 1z"/>
<path d="M33309 12959 c-96 -15 -174 -71 -214 -154 -23 -46 -28 -75 -37 -202
-6 -81 -12 -150 -14 -151 -1 -2 -49 35 -106 83 -263 222 -510 348 -735 375
-174 21 -473 -20 -667 -92 -445 -163 -836 -567 -985 -1013 -139 -420 -100
-938 104 -1361 121 -251 329 -498 532 -631 104 -68 329 -175 415 -197 112 -29
256 -39 453 -32 419 14 591 67 806 247 98 83 198 159 207 159 5 0 14 -54 20
-119 6 -66 18 -133 26 -148 41 -79 135 -127 246 -127 90 1 149 24 202 78 48
49 68 94 79 175 6 40 8 647 7 1482 l-3 1414 -24 52 c-53 118 -179 183 -312
162z m-1051 -595 c188 -39 348 -130 497 -286 184 -190 292 -410 326 -665 18
-137 7 -376 -24 -494 -77 -298 -247 -542 -487 -700 -148 -98 -303 -142 -495
-142 -261 0 -468 86 -660 277 -236 235 -355 527 -355 877 0 340 109 613 339
852 141 147 307 242 486 280 94 21 277 21 373 1z"/>
<path d="M11320 12894 c-485 -60 -873 -292 -1131 -678 -210 -313 -301 -723
-259 -1171 39 -409 184 -731 449 -995 301 -300 655 -443 1131 -457 268 -8 454
17 660 89 456 161 823 564 954 1048 74 274 84 615 26 902 -113 557 -506 1011
-1024 1183 -192 64 -275 76 -536 80 -129 2 -251 1 -270 -1z m462 -520 c193
-31 380 -122 520 -253 97 -91 155 -170 213 -293 83 -175 118 -357 118 -608 0
-374 -100 -643 -313 -844 -216 -203 -506 -301 -840 -282 -439 24 -770 241
-917 603 -61 148 -84 274 -90 483 -12 410 71 670 286 893 254 264 610 369
1023 301z"/>
<path d="M14684 12890 c-156 -22 -238 -63 -354 -180 -47 -47 -119 -134 -160
-193 -88 -127 -87 -127 -89 52 -1 140 -14 184 -67 237 -60 61 -137 87 -240 82
-95 -5 -150 -31 -208 -100 -70 -81 -66 9 -66 -1543 0 -1575 -5 -1463 75 -1553
62 -69 119 -95 209 -96 89 -1 148 26 210 95 76 85 76 82 77 598 0 251 4 638 9
861 7 364 10 413 28 482 39 145 138 310 267 446 115 123 166 149 388 207 142
37 280 103 334 160 85 89 63 282 -43 375 -61 53 -117 73 -219 76 -49 1 -118
-1 -151 -6z"/>
<path d="M15485 12886 c-90 -29 -140 -70 -174 -146 -20 -45 -21 -58 -21 -1490
0 -1432 1 -1445 21 -1490 59 -131 202 -190 354 -146 77 23 154 98 176 171 12
43 14 262 14 1475 l0 1425 -24 53 c-57 127 -209 191 -346 148z"/>
<path d="M20339 12887 c-76 -22 -150 -87 -187 -165 -16 -35 -17 -127 -17
-1473 l0 -1435 30 -59 c55 -107 160 -164 284 -152 100 9 188 73 230 167 20 44
21 62 21 1020 0 551 5 1007 10 1048 33 256 217 475 465 556 128 41 297 40 437
-4 156 -48 315 -184 386 -330 81 -166 76 -81 82 -1235 6 -1146 0 -1061 75
-1143 52 -58 115 -86 195 -86 89 -1 147 23 205 85 87 93 79 -6 85 1159 5 967
7 1039 24 1090 76 231 259 398 507 466 82 22 282 25 354 5 205 -58 386 -245
452 -467 16 -54 18 -146 23 -1094 l5 -1035 30 -53 c50 -92 129 -142 235 -149
92 -7 164 22 224 89 80 88 76 21 76 1177 0 687 -4 1056 -11 1116 -46 373 -258
667 -579 806 -150 65 -354 109 -501 109 -282 0 -518 -62 -706 -187 -78 -51
-215 -184 -270 -260 -25 -35 -48 -63 -51 -63 -4 0 -29 34 -56 76 -127 195
-332 342 -561 404 -102 28 -363 38 -486 20 -229 -33 -433 -138 -579 -297 -33
-36 -62 -64 -64 -62 -1 2 -9 51 -16 109 -7 58 -18 117 -26 131 -17 34 -79 88
-122 106 -48 20 -149 25 -203 10z"/>
<path d="M29774 12890 c-207 -29 -333 -120 -505 -365 l-84 -119 -7 54 c-3 30
-7 98 -7 150 -2 140 -33 195 -145 252 -57 30 -176 36 -244 14 -64 -22 -133
-82 -163 -143 l-24 -48 0 -1440 c0 -1612 -7 -1469 72 -1556 56 -62 123 -92
208 -93 87 -1 144 25 207 92 82 87 77 31 87 992 10 944 9 931 76 1076 72 157
234 362 340 429 60 39 156 74 285 105 100 24 244 90 300 136 46 39 70 97 70
170 0 120 -60 218 -166 270 -45 22 -71 27 -147 30 -51 1 -120 -1 -153 -6z"/>
</g>
</svg>
